<svg width="18" height="18" viewBox="0 0 18 18" fill="none" xmlns="http://www.w3.org/2000/svg">
<path fill-rule="evenodd" clip-rule="evenodd" d="M12.7849 17.151C12.9674 17.2552 13.1759 17.3333 13.4105 17.3333C13.7493 17.3333 14.1143 17.1771 14.3228 16.8906C14.5313 16.6042 14.6095 16.2396 14.5313 15.901L13.4626 11.3438C13.4626 11.2917 13.4887 11.2396 13.5148 11.2135L16.9294 8.14063C17.2943 7.82813 17.4246 7.33334 17.2682 6.89063C17.1119 6.44792 16.7209 6.13542 16.2517 6.10938L11.8465 5.77084C11.7944 5.77084 11.7683 5.7448 11.7423 5.69271L10.1001 1.42188C9.91765 0.95313 9.5006 0.666672 9.00534 0.666672C8.51009 0.666672 8.09304 0.95313 7.88451 1.42188L6.24236 5.69271C6.21629 5.7448 6.19022 5.77084 6.13809 5.77084L1.73295 6.10938C1.26376 6.13542 0.872772 6.44792 0.716377 6.89063C0.586047 7.33334 0.716377 7.82813 1.05523 8.14063L4.46987 11.2135C4.522 11.2396 4.522 11.2917 4.522 11.3438L3.47937 15.901C3.3751 16.2396 3.4533 16.6042 3.68789 16.8906C3.89642 17.1771 4.23528 17.3333 4.6002 17.3333C4.83479 17.3333 5.04332 17.2552 5.25185 17.151L8.95321 14.7292C9.00534 14.7031 9.03141 14.7031 9.08354 14.7292L12.7849 17.151Z" fill="#FF6500"/>
</svg>
